HIERARCHY
ROOT Hips
{
	OFFSET 0 0 0
	CHANNELS 6 Xposition Yposition Zposition Yrotation Xrotation Zrotation
	JOINT Spine
	{
		OFFSET -0 8.23869 -2.62608
		CHANNELS 3 Yrotation Xrotation Zrotation
		JOINT Spine1
		{
			OFFSET -0 7.92598 0
			CHANNELS 3 Yrotation Xrotation Zrotation
			JOINT Spine2
			{
				OFFSET -0 7.92598 0
				CHANNELS 3 Yrotation Xrotation Zrotation
				JOINT Spine3
				{
					OFFSET -0 7.92598 0
					CHANNELS 3 Yrotation Xrotation Zrotation
					JOINT Neck
					{
						OFFSET -0 15.3347 3.62608
						CHANNELS 3 Yrotation Xrotation Zrotation
						JOINT Head
						{
							OFFSET -0 10.2984 0
							CHANNELS 3 Yrotation Xrotation Zrotation
							End Site
							{
								OFFSET 0 15 0
							}
						}
					}
					JOINT LeftShoulder
					{
						OFFSET 1.71639 3.24826 3.43279
						CHANNELS 3 Yrotation Xrotation Zrotation
						JOINT LeftArm
						{
							OFFSET 19.515 0 0
							CHANNELS 3 Yrotation Xrotation Zrotation
							JOINT LeftForeArm
							{
								OFFSET 23.117 0 0
								CHANNELS 3 Yrotation Xrotation Zrotation
								JOINT LeftHand
								{
									OFFSET 24.3821 0 0
									CHANNELS 3 Yrotation Xrotation Zrotation
									JOINT LeftHandThumb1
									{
										OFFSET 4.89344 0 2.57866
										CHANNELS 3 Yrotation Xrotation Zrotation
										JOINT LeftHandThumb2
										{
											OFFSET 3 0 1
											CHANNELS 3 Yrotation Xrotation Zrotation
											JOINT LeftHandThumb3
											{
												OFFSET 2.1 0 0
												CHANNELS 3 Yrotation Xrotation Zrotation
												JOINT LeftHandThumb4
												{
													OFFSET 1.305 0 0
													CHANNELS 3 Yrotation Xrotation Zrotation
													End Site
													{
														OFFSET -0 0 0
													}
												}
											}
										}
									}
									JOINT LeftHandIndex1
									{
										OFFSET 9.17063 0 3.39553
										CHANNELS 3 Yrotation Xrotation Zrotation
										JOINT LeftHandIndex2
										{
											OFFSET 3.5 0 0
											CHANNELS 3 Yrotation Xrotation Zrotation
											JOINT LeftHandIndex3
											{
												OFFSET 2.45 0 0
												CHANNELS 3 Yrotation Xrotation Zrotation
												JOINT LeftHandIndex4
												{
													OFFSET 1.5225 0 0
													CHANNELS 3 Yrotation Xrotation Zrotation
													End Site
													{
														OFFSET -0 0 0
													}
												}
											}
										}
									}
									JOINT LeftHandMiddle1
									{
										OFFSET 9.21351 0 0.900721
										CHANNELS 3 Yrotation Xrotation Zrotation
										JOINT LeftHandMiddle2
										{
											OFFSET 4.6 0 0
											CHANNELS 3 Yrotation Xrotation Zrotation
											JOINT LeftHandMiddle3
											{
												OFFSET 3.22 0 0
												CHANNELS 3 Yrotation Xrotation Zrotation
												JOINT LeftHandMiddle4
												{
													OFFSET 2.001 0 0
													CHANNELS 3 Yrotation Xrotation Zrotation
													End Site
													{
														OFFSET -0 0 0
													}
												}
											}
										}
									}
									JOINT LeftHandRing1
									{
										OFFSET 8.95639 0 -1.59409
										CHANNELS 3 Yrotation Xrotation Zrotation
										JOINT LeftHandRing2
										{
											OFFSET 3.75 0 0
											CHANNELS 3 Yrotation Xrotation Zrotation
											JOINT LeftHandRing3
											{
												OFFSET 2.625 0 0
												CHANNELS 3 Yrotation Xrotation Zrotation
												JOINT LeftHandRing4
												{
													OFFSET 1.63125 0 0
													CHANNELS 3 Yrotation Xrotation Zrotation
													End Site
													{
														OFFSET -0 0 0
													}
												}
											}
										}
									}
									JOINT LeftHandPinky1
									{
										OFFSET 8.39928 0 -4.08889
										CHANNELS 3 Yrotation Xrotation Zrotation
										JOINT LeftHandPinky2
										{
											OFFSET 2.875 0 0
											CHANNELS 3 Yrotation Xrotation Zrotation
											JOINT LeftHandPinky3
											{
												OFFSET 2.0125 0 0
												CHANNELS 3 Yrotation Xrotation Zrotation
												JOINT LeftHandPinky4
												{
													OFFSET 1.25062 0 0
													CHANNELS 3 Yrotation Xrotation Zrotation
													End Site
													{
														OFFSET -0 0 0
													}
												}
											}
										}
									}
								}
							}
						}
					}
					JOINT RightShoulder
					{
						OFFSET -1.71639 3.24826 3.43279
						CHANNELS 3 Yrotation Xrotation Zrotation
						JOINT RightArm
						{
							OFFSET -19.515 0 0
							CHANNELS 3 Yrotation Xrotation Zrotation
							JOINT RightForeArm
							{
								OFFSET -23.117 0 0
								CHANNELS 3 Yrotation Xrotation Zrotation
								JOINT RightHand
								{
									OFFSET -24.3821 0 0
									CHANNELS 3 Yrotation Xrotation Zrotation
									JOINT RightHandThumb1
									{
										OFFSET -4.44833 0 2.59928
										CHANNELS 3 Yrotation Xrotation Zrotation
										JOINT RightHandThumb2
										{
											OFFSET -3 0 1
											CHANNELS 3 Yrotation Xrotation Zrotation
											JOINT RightHandThumb3
											{
												OFFSET -2.1 0 0
												CHANNELS 3 Yrotation Xrotation Zrotation
												JOINT RightHandThumb4
												{
													OFFSET -1.305 0 0
													CHANNELS 3 Yrotation Xrotation Zrotation
													End Site
													{
														OFFSET -0 0 0
													}
												}
											}
										}
									}
									JOINT RightHandIndex1
									{
										OFFSET -7.73763 0 3.41549
										CHANNELS 3 Yrotation Xrotation Zrotation
										JOINT RightHandIndex2
										{
											OFFSET -3.5 0 0
											CHANNELS 3 Yrotation Xrotation Zrotation
											JOINT RightHandIndex3
											{
												OFFSET -2.45 0 0
												CHANNELS 3 Yrotation Xrotation Zrotation
												JOINT RightHandIndex4
												{
													OFFSET -1.5225 0 0
													CHANNELS 3 Yrotation Xrotation Zrotation
													End Site
													{
														OFFSET -0 0 0
													}
												}
											}
										}
									}
									JOINT RightHandMiddle1
									{
										OFFSET -8.14217 0 1.11673
										CHANNELS 3 Yrotation Xrotation Zrotation
										JOINT RightHandMiddle2
										{
											OFFSET -4.6 0 0
											CHANNELS 3 Yrotation Xrotation Zrotation
											JOINT RightHandMiddle3
											{
												OFFSET -3.22 0 0
												CHANNELS 3 Yrotation Xrotation Zrotation
												JOINT RightHandMiddle4
												{
													OFFSET -2.001 0 0
													CHANNELS 3 Yrotation Xrotation Zrotation
													End Site
													{
														OFFSET -0 0 0
													}
												}
											}
										}
									}
									JOINT RightHandRing1
									{
										OFFSET -8.24672 0 -1.18204
										CHANNELS 3 Yrotation Xrotation Zrotation
										JOINT RightHandRing2
										{
											OFFSET -3.75 0 0
											CHANNELS 3 Yrotation Xrotation Zrotation
											JOINT RightHandRing3
											{
												OFFSET -2.625 0 0
												CHANNELS 3 Yrotation Xrotation Zrotation
												JOINT RightHandRing4
												{
													OFFSET -1.63125 0 0
													CHANNELS 3 Yrotation Xrotation Zrotation
													End Site
													{
														OFFSET -0 0 0
													}
												}
											}
										}
									}
									JOINT RightHandPinky1
									{
										OFFSET -8.05126 0 -3.4808
										CHANNELS 3 Yrotation Xrotation Zrotation
										JOINT RightHandPinky2
										{
											OFFSET -2.875 0 0
											CHANNELS 3 Yrotation Xrotation Zrotation
											JOINT RightHandPinky3
											{
												OFFSET -2.0125 0 0
												CHANNELS 3 Yrotation Xrotation Zrotation
												JOINT RightHandPinky4
												{
													OFFSET -1.25062 0 0
													CHANNELS 3 Yrotation Xrotation Zrotation
													End Site
													{
														OFFSET -0 0 0
													}
												}
											}
										}
									}
								}
							}
						}
					}
				}
			}
		}
	}
	JOINT LeftUpLeg
	{
		OFFSET 10.2984 -3.43279 3
		CHANNELS 3 Yrotation Xrotation Zrotation
		JOINT LeftLeg
		{
			OFFSET -0 -43.8423 2.40295
			CHANNELS 3 Yrotation Xrotation Zrotation
			JOINT LeftFoot
			{
				OFFSET -0 -38.9759 -2.40295
				CHANNELS 3 Yrotation Xrotation Zrotation
				JOINT LeftToeBase
				{
					OFFSET -0 -9.09429 9.70353
					CHANNELS 3 Yrotation Xrotation Zrotation
					End Site
					{
						OFFSET 0 0 5
					}
				}
			}
		}
	}
	JOINT RightUpLeg
	{
		OFFSET -10.2984 -3.43279 3
		CHANNELS 3 Yrotation Xrotation Zrotation
		JOINT RightLeg
		{
			OFFSET -0 -43.8423 2.40295
			CHANNELS 3 Yrotation Xrotation Zrotation
			JOINT RightFoot
			{
				OFFSET -0 -38.9759 -2.40295
				CHANNELS 3 Yrotation Xrotation Zrotation
				JOINT RightToeBase
				{
					OFFSET -0 -9.09429 9.70353
					CHANNELS 3 Yrotation Xrotation Zrotation
					End Site
					{
						OFFSET 0 0 5
					}
				}
			}
		}
	}
}
MOTION
Frames: 4
Frame Time: 0.0047619
0 95.736452 0 0 0 0 0 0 0 0 0 0 0 0 0 0 0 0 0 0 0 0 0 0 0 0 0 0 0 0 0 0 0 0 0 0 0 0 0 0 0 0 0 0 0 0 0 0 0 0 0 0 0 0 0 0 0 0 0 0 0 0 0 0 0 0 0 0 0 0 0 0 0 0 0 0 0 0 0 0 0 0 0 0 0 0 0 0 0 0 0 0 0 0 0 0 0 0 0 0 0 0 0 0 0 0 0 0 0 0 0 0 0 0 0 0 0 0 0 0 0 0 0 0 0 0 0 0 0 0 0 0 0 0 0 0 0 0 0 0 0 0 0 0 0 0 0 0 0 0 0 0 0 0 0 0 0 0 0 0 0 0 0 0 0 0 0 0 0 0 0 0 0 0 0 0 0 0 0 0 0 0 0 0 0 0 0 0 0 0 0 0
-29.101523 96.042609 -0.125088 1.095739 0.382069 -0.122970 -0.159689 -0.035977 0.172454 -0.060354 -0.072239 0.125574 0.134367 0.022474 0.085434 0.235406 0.068780 -0.001895 0.791612 -1.316231 1.068073 0.372657 -0.213421 -1.944193 10.235601 -0.052631 12.108754 -22.686690 -2.693772 1.006041 -6.639689 0.064935 2.137347 21.794026 7.841462 -34.376521 26.375030 9.957557 -1.479023 30.376473 11.470802 -1.296490 -18.076069 -2.185925 -15.898669 0.000076 -0.000045 2.033106 0.000076 -0.000045 2.033106 0.000052 -0.000042 1.626481 0.000037 -0.000016 0.813242 0.000057 -0.000043 -2.036210 0.000057 -0.000043 -2.036210 0.000058 -0.000039 -1.628974 0.000025 -0.000019 -0.814486 0.000026 -0.000015 2.337070 0.000026 -0.000015 2.337070 0.000025 -0.000012 1.869648 0.000006 -0.000006 0.934830 0.000058 -0.000039 4.250924 0.000058 -0.000039 4.250924 0.000056 -0.000034 3.400737 0.000023 -0.000011 1.700368 -172.093943 -0.006659 -179.903632 -9.440546 2.275531 -10.214830 20.197753 1.210573 -2.140251 4.319079 2.869188 1.503687 -13.308055 -5.493194 35.876634 -8.786039 12.480010 -16.914915 -10.449041 14.102546 -19.677545 -54.555639 23.045818 -1.115435 0.000003 0.000003 -12.500001 0.000003 0.000003 -12.500001 0.000003 0.000000 -10.000001 0.000003 -0.000001 -4.999999 -0.000010 0.000000 -9.613999 -0.000010 0.000000 -9.613999 -0.000007 0.000001 -7.691192 0.000004 0.000003 -3.845600 -0.000010 0.000001 25.855259 -0.000010 0.000001 25.855259 -0.000005 -0.000005 20.684208 -0.000003 -0.000004 10.342126 -0.000005 0.000001 20.133403 -0.000005 0.000001 20.133403 -0.000005 -0.000004 16.106728 -0.000001 0.000003 8.053371 26.375030 9.957557 -1.479023 9.940444 3.970303 4.694725 0.000000 0.850878 0.000000 15.309618 1.830555 0.782128 0.000000 -8.990866 0.000000 -7.219817 5.039983 -3.241280 0.000000 -0.873584 0.000000 -16.530578 -0.696680 2.718076 0.000000 -5.836565 0.000000
-29.093631 96.041516 -0.122780 1.077564 0.384157 -0.119374 -0.151559 -0.032435 0.176354 -0.052811 -0.057927 0.127545 0.135424 0.028907 0.083783 0.235789 0.053613 0.001586 0.798248 -1.363577 1.072876 0.375309 -0.152861 -1.972037 10.219962 -0.056898 12.100452 -22.649192 -2.689967 1.010344 -6.665945 0.119429 2.121122 21.801469 7.766609 -34.403726 26.375030 9.957557 -1.479023 30.376473 11.470802 -1.296490 -18.076069 -2.185925 -15.898669 0.000076 -0.000045 2.033106 0.000076 -0.000045 2.033106 0.000052 -0.000042 1.626481 0.000037 -0.000016 0.813242 0.000057 -0.000043 -2.036210 0.000057 -0.000043 -2.036210 0.000058 -0.000039 -1.628974 0.000025 -0.000019 -0.814486 0.000026 -0.000015 2.337070 0.000026 -0.000015 2.337070 0.000025 -0.000012 1.869648 0.000006 -0.000006 0.934830 0.000058 -0.000039 4.250924 0.000058 -0.000039 4.250924 0.000056 -0.000034 3.400737 0.000023 -0.000011 1.700368 -172.093943 -0.006659 -179.903632 -9.431611 2.259662 -10.233496 20.189845 1.178046 -2.135706 4.308258 2.851786 1.513525 -13.292858 -5.418302 35.866096 -8.786039 12.480010 -16.914915 -10.449041 14.102546 -19.677545 -54.555639 23.045818 -1.115435 0.000003 0.000003 -12.500001 0.000003 0.000003 -12.500001 0.000003 0.000000 -10.000001 0.000003 -0.000001 -4.999999 -0.000010 0.000000 -9.613999 -0.000010 0.000000 -9.613999 -0.000007 0.000001 -7.691192 0.000004 0.000003 -3.845600 -0.000010 0.000001 25.855259 -0.000010 0.000001 25.855259 -0.000005 -0.000005 20.684208 -0.000003 -0.000004 10.342126 -0.000005 0.000001 20.133403 -0.000005 0.000001 20.133403 -0.000005 -0.000004 16.106728 -0.000001 0.000003 8.053371 26.375030 9.957557 -1.479023 9.964985 3.969481 4.684895 0.000000 0.854197 0.000000 15.325622 1.829314 0.794386 0.000000 -8.972254 0.000000 -7.234883 5.039314 -3.247739 0.000000 -0.885532 0.000000 -16.505076 -0.712826 2.696690 0.000000 -5.831176 0.000000
-29.084689 96.040460 -0.121866 1.068758 0.385917 -0.120260 -0.146105 -0.020942 0.185261 -0.048481 -0.060473 0.132709 0.136919 0.035085 0.084454 0.236834 0.067867 -0.003489 0.795957 -1.382380 1.072717 0.375880 -0.190358 -1.983349 10.226480 -0.044790 12.100590 -22.658942 -2.731185 1.014255 -6.647229 0.164810 2.120048 21.793173 7.711125 -34.431031 26.375030 9.957557 -1.479023 30.376473 11.470802 -1.296490 -18.076069 -2.185925 -15.898669 0.000076 -0.000045 2.033106 0.000076 -0.000045 2.033106 0.000052 -0.000042 1.626481 0.000037 -0.000016 0.813242 0.000057 -0.000043 -2.036210 0.000057 -0.000043 -2.036210 0.000058 -0.000039 -1.628974 0.000025 -0.000019 -0.814486 0.000026 -0.000015 2.337070 0.000026 -0.000015 2.337070 0.000025 -0.000012 1.869648 0.000006 -0.000006 0.934830 0.000058 -0.000039 4.250924 0.000058 -0.000039 4.250924 0.000056 -0.000034 3.400737 0.000023 -0.000011 1.700368 -172.093943 -0.006659 -179.903632 -9.430844 2.257754 -10.245662 20.171242 1.139588 -2.144213 4.319308 2.889023 1.518968 -13.291508 -5.419067 35.875901 -8.786039 12.480010 -16.914915 -10.449041 14.102546 -19.677545 -54.555639 23.045818 -1.115435 0.000003 0.000003 -12.500001 0.000003 0.000003 -12.500001 0.000003 0.000000 -10.000001 0.000003 -0.000001 -4.999999 -0.000010 0.000000 -9.613999 -0.000010 0.000000 -9.613999 -0.000007 0.000001 -7.691192 0.000004 0.000003 -3.845600 -0.000010 0.000001 25.855259 -0.000010 0.000001 25.855259 -0.000005 -0.000005 20.684208 -0.000003 -0.000004 10.342126 -0.000005 0.000001 20.133403 -0.000005 0.000001 20.133403 -0.000005 -0.000004 16.106728 -0.000001 0.000003 8.053371 26.375030 9.957557 -1.479023 9.958621 3.970177 4.684683 0.000000 0.853075 0.000000 15.340548 1.855467 0.749739 0.000000 -9.019001 0.000000 -7.264994 5.035953 -3.252192 0.000000 -0.890386 0.000000 -16.466588 -0.690349 2.650109 0.000000 -5.817636 0.000000
